<svg width="460" height="198" viewBox="0 0 460 198" fill="none" xmlns="http://www.w3.org/2000/svg">
<path d="M0 14V162C0 169.732 6.26801 176 14 176H46.403C49.4941 176 52 173.494 52 170.403C52 170.135 52.0178 169.875 52.0643 169.611C52.7696 165.604 59.7359 132 95 132C130.264 132 137.23 165.604 137.936 169.611C137.982 169.875 138 170.135 138 170.403C138 173.494 140.506 176 143.597 176H284C290.075 176 295 180.925 295 187C295 193.075 299.925 198 306 198H349.5C357.232 198 363.5 191.732 363.5 184V172.97C363.5 172.324 363.543 171.682 363.663 171.048C364.797 165.026 372.517 132.5 407 132.5C443.376 132.5 449.512 168.696 449.97 171.79C449.994 171.946 450 172.079 450 172.237C450 174.315 451.685 176 453.763 176H455C457.761 176 460 173.761 460 171V102C460 94.268 453.732 88 446 88H386.5C378.768 88 372.5 81.732 372.5 74V17.305C372.5 15.1315 371.994 12.9879 371.022 11.044L369.853 8.70554C368.643 6.28702 366.76 4.27043 364.429 2.89945L362.786 1.93292C360.634 0.667348 358.184 0 355.688 0H14C6.26801 0 0 6.26801 0 14Z" fill="#ECAE1F"/>
<path d="M25 41C25 36.5817 28.5817 33 33 33H76C80.4183 33 84 36.5817 84 41V84C84 88.4183 80.4183 92 76 92H33C28.5817 92 25 88.4183 25 84V41Z" fill="#D1E9D6"/>
<path d="M94 41C94 36.5817 97.5817 33 102 33H145C149.418 33 153 36.5817 153 41V84C153 88.4183 149.418 92 145 92H102C97.5817 92 94 88.4183 94 84V41Z" fill="#D1E9D6"/>
<path d="M164 41C164 36.5817 167.582 33 172 33H215C219.418 33 223 36.5817 223 41V84C223 88.4183 219.418 92 215 92H172C167.582 92 164 88.4183 164 84V41Z" fill="#D1E9D6"/>
<path d="M233 41C233 36.5817 236.582 33 241 33H284C288.418 33 292 36.5817 292 41V84C292 88.4183 288.418 92 284 92H241C236.582 92 233 88.4183 233 84V41Z" fill="#D1E9D6"/>
<path d="M300 46C300 41.5817 303.582 38 308 38H351C355.418 38 359 41.5817 359 46V177C359 181.418 355.418 185 351 185H308C303.582 185 300 181.418 300 177V46Z" fill="#D1E9D6"/>
<path d="M327 38H332V190H327V38Z" fill="#ECAE1F"/>
<path d="M135.5 161.5L295 161V181H138C138 181 138.469 175.029 138 171.25C137.516 167.349 135.5 161.5 135.5 161.5Z" fill="#231F20"/>
<path d="M24 112C24 110.895 24.8954 110 26 110H291C292.105 110 293 110.895 293 112V123C293 124.105 292.105 125 291 125H26C24.8954 125 24 124.105 24 123V112Z" fill="#231F20"/>
<path d="M24 101C24 99.8954 24.8954 99 26 99H291C292.105 99 293 99.8954 293 101V102C293 103.105 292.105 104 291 104H26C24.8954 104 24 103.105 24 102V101Z" fill="#231F20"/>
<path d="M453 117C453 125.284 449.642 132 445.5 132C441.358 132 438 125.284 438 117C438 108.716 441.358 102 445.5 102C449.642 102 453 108.716 453 117Z" fill="#D1E9D6"/>
</svg>
