<svg width="460" height="198" viewBox="0 0 460 198" fill="none" xmlns="http://www.w3.org/2000/svg">
<path d="M460 14V162C460 169.732 453.732 176 446 176H413.597C410.506 176 408 173.494 408 170.403C408 170.135 407.982 169.875 407.936 169.611C407.23 165.604 400.264 132 365 132C329.736 132 322.77 165.604 322.064 169.611C322.018 169.875 322 170.135 322 170.403C322 173.494 319.494 176 316.403 176H176C169.925 176 165 180.925 165 187C165 193.075 160.075 198 154 198H110.5C102.768 198 96.5 191.732 96.5 184V172.97C96.5 172.324 96.4568 171.682 96.3372 171.048C95.2035 165.026 87.4829 132.5 53 132.5C16.6242 132.5 10.4877 168.696 10.0296 171.79C10.0064 171.946 10 172.079 10 172.237C10 174.315 8.31534 176 6.23721 176H5C2.23859 176 0 173.761 0 171V102C0 94.268 6.26801 88 14 88H73.5C81.232 88 87.5 81.732 87.5 74V17.305C87.5 15.1315 88.006 12.9879 88.978 11.044L90.1472 8.70554C91.3565 6.28702 93.2403 4.27043 95.5709 2.89945L97.214 1.93292C99.3655 0.667348 101.816 0 104.312 0H446C453.732 0 460 6.26801 460 14Z" fill="#ECAE1F"/>
<path d="M435 41C435 36.5817 431.418 33 427 33H384C379.582 33 376 36.5817 376 41V84C376 88.4183 379.582 92 384 92H427C431.418 92 435 88.4183 435 84V41Z" fill="#D1E9D6"/>
<path d="M366 41C366 36.5817 362.418 33 358 33H315C310.582 33 307 36.5817 307 41V84C307 88.4183 310.582 92 315 92H358C362.418 92 366 88.4183 366 84V41Z" fill="#D1E9D6"/>
<path d="M296 41C296 36.5817 292.418 33 288 33H245C240.582 33 237 36.5817 237 41V84C237 88.4183 240.582 92 245 92H288C292.418 92 296 88.4183 296 84V41Z" fill="#D1E9D6"/>
<path d="M227 41C227 36.5817 223.418 33 219 33H176C171.582 33 168 36.5817 168 41V84C168 88.4183 171.582 92 176 92H219C223.418 92 227 88.4183 227 84V41Z" fill="#D1E9D6"/>
<path d="M160 46C160 41.5817 156.418 38 152 38H109C104.582 38 101 41.5817 101 46V177C101 181.418 104.582 185 109 185H152C156.418 185 160 181.418 160 177V46Z" fill="#D1E9D6"/>
<path d="M133 38H128V190H133V38Z" fill="#ECAE1F"/>
<path d="M324.5 161.5L165 161V181H322C322 181 321.531 175.029 322 171.25C322.484 167.349 324.5 161.5 324.5 161.5Z" fill="#231F20"/>
<path d="M436 112C436 110.895 435.105 110 434 110H169C167.895 110 167 110.895 167 112V123C167 124.105 167.895 125 169 125H434C435.105 125 436 124.105 436 123V112Z" fill="#231F20"/>
<path d="M436 101C436 99.8954 435.105 99 434 99H169C167.895 99 167 99.8954 167 101V102C167 103.105 167.895 104 169 104H434C435.105 104 436 103.105 436 102V101Z" fill="#231F20"/>
<path d="M7 117C7 125.284 10.3579 132 14.5 132C18.6421 132 22 125.284 22 117C22 108.716 18.6421 102 14.5 102C10.3579 102 7 108.716 7 117Z" fill="#D1E9D6"/>
</svg>
