<svg width="451" height="200" viewBox="0 0 451 200" fill="none" xmlns="http://www.w3.org/2000/svg">
<path d="M0.499589 14.1414L0.499274 163.636C0.499274 171.446 -0.72571 177.778 6.96234 177.778H39.1811C42.2547 177.778 44.7464 175.247 44.7464 172.124C44.7464 171.853 44.764 171.591 44.8103 171.324C45.5116 167.276 52.4383 133.333 87.502 133.333C122.566 133.333 129.492 167.276 130.194 171.324C130.24 171.591 130.258 171.853 130.258 172.124C130.258 175.247 132.749 177.778 135.823 177.778H275.428C281.469 177.778 286.365 182.752 286.365 188.889C286.365 195.025 291.262 200 297.303 200H340.556C348.244 200 354.476 193.669 354.476 185.859V174.717C354.476 174.065 354.519 173.416 354.638 172.775C355.765 166.693 363.442 133.838 397.729 133.838C433.898 133.838 440 170.4 440.455 173.525C440.478 173.683 440.485 173.817 440.485 173.977C440.485 176.076 442.16 177.778 444.226 177.778H445.456C448.202 177.778 450.428 175.517 450.428 172.727V103.03C450.428 95.2202 444.195 88.8889 436.507 88.8889H377.345C369.657 88.8889 363.425 82.5576 363.425 74.7475V17.4797C363.425 15.2844 362.922 13.1191 361.955 11.1555L360.793 8.79348C359.59 6.35052 357.717 4.31357 355.4 2.92874L353.766 1.95245C351.627 0.674089 349.19 0 346.708 0H6.96234C-0.72571 0 0.499589 6.33132 0.499589 14.1414Z" fill="#ECAE1F"/>
<path d="M17.8998 41.4141C17.8998 36.9512 21.4612 33.3333 25.8544 33.3333H68.61C73.0032 33.3333 76.5645 36.9512 76.5645 41.4141V84.8485C76.5645 89.3114 73.0032 92.9293 68.61 92.9293H25.8544C21.4612 92.9293 17.8998 89.3114 17.8998 84.8485V41.4141Z" fill="#D1E9D6"/>
<path d="M86.5077 41.4141C86.5077 36.9512 90.0691 33.3333 94.4622 33.3333H137.218C141.611 33.3333 145.172 36.9512 145.172 41.4141V84.8485C145.172 89.3114 141.611 92.9293 137.218 92.9293H94.4622C90.0691 92.9293 86.5077 89.3114 86.5077 84.8485V41.4141Z" fill="#D1E9D6"/>
<path d="M156.11 41.4141C156.11 36.9512 159.671 33.3333 164.064 33.3333H206.82C211.213 33.3333 214.775 36.9512 214.775 41.4141V84.8485C214.775 89.3114 211.213 92.9293 206.82 92.9293H164.064C159.671 92.9293 156.11 89.3114 156.11 84.8485V41.4141Z" fill="#D1E9D6"/>
<path d="M224.718 41.4141C224.718 36.9512 228.279 33.3333 232.672 33.3333H275.428C279.821 33.3333 283.382 36.9512 283.382 41.4141V84.8485C283.382 89.3114 279.821 92.9293 275.428 92.9293H232.672C228.279 92.9293 224.718 89.3114 224.718 84.8485V41.4141Z" fill="#D1E9D6"/>
<path d="M291.337 46.4646C291.337 42.0017 294.898 38.3838 299.292 38.3838H342.047C346.44 38.3838 350.002 42.0017 350.002 46.4646V178.788C350.002 183.251 346.44 186.869 342.047 186.869H299.292C294.898 186.869 291.337 183.251 291.337 178.788V46.4646Z" fill="#D1E9D6"/>
<path d="M318.184 38.3838H323.155V191.919H318.184V38.3838Z" fill="#ECAE1F"/>
<path d="M127.772 163.131L286.365 162.626V182.828H130.258C130.258 182.828 130.724 176.797 130.258 172.98C129.776 169.04 127.772 163.131 127.772 163.131Z" fill="#231F20"/>
<path d="M16.9055 113.131C16.9055 112.016 17.7958 111.111 18.8941 111.111H282.388C283.486 111.111 284.377 112.016 284.377 113.131V124.242C284.377 125.358 283.486 126.263 282.388 126.263H18.8941C17.7959 126.263 16.9055 125.358 16.9055 124.242V113.131Z" fill="#231F20"/>
<path d="M16.9055 102.02C16.9055 100.904 17.7958 100 18.8941 100H282.388C283.486 100 284.377 100.904 284.377 102.02V103.03C284.377 104.146 283.486 105.05 282.388 105.05H18.8941C17.7959 105.05 16.9055 104.146 16.9055 103.03V102.02Z" fill="#231F20"/>
<path d="M443.468 118.182C443.468 126.55 440.129 133.333 436.01 133.333C431.892 133.333 428.553 126.55 428.553 118.182C428.553 109.814 431.892 103.03 436.01 103.03C440.129 103.03 443.468 109.814 443.468 118.182Z" fill="#D1E9D6"/>
</svg>
