<svg width="78" height="78" viewBox="0 0 78 78" fill="none" xmlns="http://www.w3.org/2000/svg">
<path d="M78 39C78 60.5391 60.5391 78 39 78C17.4609 78 0 60.5391 0 39C0 17.4609 17.4609 0 39 0C60.5391 0 78 17.4609 78 39Z" fill="#231F20"/>
<path d="M60 39C60 50.598 50.598 60 39 60C27.402 60 18 50.598 18 39C18 27.402 27.402 18 39 18C50.598 18 60 27.402 60 39Z" fill="#D1E9D6"/>
<path d="M42 26C42 27.6569 40.6569 29 39 29C37.3431 29 36 27.6569 36 26C36 24.3431 37.3431 23 39 23C40.6569 23 42 24.3431 42 26Z" fill="#231F20"/>
<path d="M30 47C30 48.6569 28.6569 50 27 50C25.3431 50 24 48.6569 24 47C24 45.3431 25.3431 44 27 44C28.6569 44 30 45.3431 30 47Z" fill="#231F20"/>
<path d="M42 54C42 55.6569 40.6569 57 39 57C37.3431 57 36 55.6569 36 54C36 52.3431 37.3431 51 39 51C40.6569 51 42 52.3431 42 54Z" fill="#231F20"/>
<path d="M30 33C30 34.6569 28.6569 36 27 36C25.3431 36 24 34.6569 24 33C24 31.3431 25.3431 30 27 30C28.6569 30 30 31.3431 30 33Z" fill="#231F20"/>
<path d="M53.9999 47.0001C53.9999 48.6569 52.6567 50.0001 50.9999 50.0001C49.343 50.0001 47.9999 48.6569 47.9999 47.0001C47.9999 45.3432 49.343 44.0001 50.9999 44.0001C52.6567 44.0001 53.9999 45.3432 53.9999 47.0001Z" fill="#231F20"/>
<path d="M54 33C54 34.6569 52.6569 36 51 36C49.3431 36 48 34.6569 48 33C48 31.3431 49.3431 30 51 30C52.6569 30 54 31.3431 54 33Z" fill="#231F20"/>
<path d="M45 39C45 42.3137 42.3137 45 39 45C35.6863 45 33 42.3137 33 39C33 35.6863 35.6863 33 39 33C42.3137 33 45 35.6863 45 39Z" fill="#231F20"/>
</svg>
