<svg width="80" height="80" viewBox="0 0 80 80" fill="none" xmlns="http://www.w3.org/2000/svg">
<path d="M79.9995 40C79.9995 62.0914 62.0909 80 39.9995 80C17.9081 80 -0.000488281 62.0914 -0.000488281 40C-0.000488281 17.9086 17.9081 0 39.9995 0C62.0909 0 79.9995 17.9086 79.9995 40Z" fill="#231F20"/>
<path d="M61.538 40C61.538 51.8954 51.8949 61.5385 39.9995 61.5385C28.1041 61.5385 18.4611 51.8954 18.4611 40C18.4611 28.1046 28.1041 18.4615 39.9995 18.4615C51.8949 18.4615 61.538 28.1046 61.538 40Z" fill="#D1E9D6"/>
<path d="M43.0764 26.6667C43.0764 28.366 41.6989 29.7436 39.9995 29.7436C38.3002 29.7436 36.9226 28.366 36.9226 26.6667C36.9226 24.9673 38.3002 23.5897 39.9995 23.5897C41.6989 23.5897 43.0764 24.9673 43.0764 26.6667Z" fill="#231F20"/>
<path d="M30.7687 48.2051C30.7687 49.9045 29.3912 51.2821 27.6918 51.2821C25.9925 51.2821 24.6149 49.9045 24.6149 48.2051C24.6149 46.5058 25.9925 45.1282 27.6918 45.1282C29.3912 45.1282 30.7687 46.5058 30.7687 48.2051Z" fill="#231F20"/>
<path d="M43.0764 55.3846C43.0764 57.084 41.6989 58.4615 39.9995 58.4615C38.3002 58.4615 36.9226 57.084 36.9226 55.3846C36.9226 53.6853 38.3002 52.3077 39.9995 52.3077C41.6989 52.3077 43.0764 53.6853 43.0764 55.3846Z" fill="#231F20"/>
<path d="M30.7687 33.8462C30.7687 35.5455 29.3912 36.9231 27.6918 36.9231C25.9925 36.9231 24.6149 35.5455 24.6149 33.8462C24.6149 32.1468 25.9925 30.7692 27.6918 30.7692C29.3912 30.7692 30.7687 32.1468 30.7687 33.8462Z" fill="#231F20"/>
<path d="M55.384 48.2052C55.384 49.9046 54.0064 51.2822 52.3071 51.2822C50.6077 51.2822 49.2302 49.9046 49.2302 48.2052C49.2302 46.5059 50.6077 45.1283 52.3071 45.1283C54.0064 45.1283 55.384 46.5059 55.384 48.2052Z" fill="#231F20"/>
<path d="M55.3841 33.8462C55.3841 35.5455 54.0065 36.9231 52.3072 36.9231C50.6079 36.9231 49.2303 35.5455 49.2303 33.8462C49.2303 32.1468 50.6079 30.7692 52.3072 30.7692C54.0065 30.7692 55.3841 32.1468 55.3841 33.8462Z" fill="#231F20"/>
<path d="M46.1534 40C46.1534 43.3987 43.3982 46.1538 39.9995 46.1538C36.6008 46.1538 33.8457 43.3987 33.8457 40C33.8457 36.6013 36.6008 33.8462 39.9995 33.8462C43.3982 33.8462 46.1534 36.6013 46.1534 40Z" fill="#231F20"/>
</svg>
