<svg width="52" height="41" viewBox="0 0 52 41" fill="none" xmlns="http://www.w3.org/2000/svg">
<path d="M28.9208 1.53037C29.6104 0.840612 30.5455 0.453125 31.5206 0.453125C32.4956 0.453125 33.4308 0.840612 34.1203 1.53037L50.6676 18.0872C51.357 18.7772 51.7442 19.7129 51.7442 20.6885C51.7442 21.6641 51.357 22.5998 50.6676 23.2898L34.1203 39.8466C33.4268 40.5168 32.498 40.8877 31.5338 40.8793C30.5697 40.8709 29.6474 40.484 28.9656 39.8018C28.2838 39.1196 27.8971 38.1968 27.8887 37.2321C27.8804 36.2674 28.251 35.338 28.9208 34.6441L38.8749 24.3678H3.94182C2.96657 24.3678 2.03127 23.9802 1.34167 23.2902C0.652063 22.6002 0.264648 21.6643 0.264648 20.6885C0.264648 19.7127 0.652063 18.7768 1.34167 18.0868C2.03127 17.3968 2.96657 17.0092 3.94182 17.0092H38.8749L28.9208 6.73291C28.2315 6.04294 27.8442 5.10726 27.8442 4.13164C27.8442 3.15602 28.2315 2.22035 28.9208 1.53037Z" fill="#555555"/>
</svg>
