<svg width="52" height="41" viewBox="0 0 52 41" fill="none" xmlns="http://www.w3.org/2000/svg">
<path d="M23.0089 39.8026C22.3193 40.4924 21.3842 40.8799 20.4091 40.8799C19.4341 40.8799 18.4989 40.4924 17.8093 39.8026L1.26209 23.2458C0.572731 22.5558 0.185467 21.6201 0.185467 20.6445C0.185467 19.6689 0.572731 18.7332 1.26209 18.0432L17.8093 1.48637C18.5029 0.816158 19.4317 0.445305 20.3959 0.45369C21.36 0.46207 22.2823 0.849018 22.9641 1.53119C23.6458 2.21336 24.0326 3.13618 24.041 4.10088C24.0493 5.06558 23.6787 5.99498 23.0089 6.68891L13.0548 16.9652L47.9879 16.9652C48.9631 16.9652 49.8984 17.3528 50.588 18.0428C51.2776 18.7328 51.665 19.6687 51.665 20.6445C51.665 21.6203 51.2776 22.5562 50.588 23.2462C49.8984 23.9362 48.9631 24.3238 47.9879 24.3238L13.0548 24.3238L23.0089 34.6001C23.6982 35.2901 24.0855 36.2257 24.0855 37.2014C24.0855 38.177 23.6982 39.1127 23.0089 39.8026Z" fill="#555555"/>
</svg>
